<?xml version="1.0" standalone="no"?><!DOCTYPE svg PUBLIC "-//W3C//DTD SVG 1.1//EN" "http://www.w3.org/Graphics/SVG/1.1/DTD/svg11.dtd"><svg t="1714987510366" class="icon" viewBox="0 0 1024 1024" version="1.1" xmlns="http://www.w3.org/2000/svg" p-id="2615" xmlns:xlink="http://www.w3.org/1999/xlink" width="16" height="16"><path d="M995.659702 515.072881h-168.246995v-107.32998a158.226014 158.226014 0 0 0 158.226014-158.226014c0-5.01049-1.31855-14.504051-6.32904-14.504051h-70.937997a8.966141 8.966141 0 0 0-8.96614 8.96614 71.465417 71.465417 0 0 1-71.992837 72.256547h-632.904058a71.465417 71.465417 0 0 1-71.465416-71.465417 8.966141 8.966141 0 0 0-8.966141-8.96614H42.875385c-5.01049 0-6.329041 9.493561-6.32904 14.504051a158.226014 158.226014 0 0 0 158.226014 158.226014v106.53885H26.261654a8.966141 8.966141 0 0 0-8.966141 8.966141v70.146866a8.966141 8.966141 0 0 0 8.966141 8.966141h168.246995v119.724351a217.29706 217.29706 0 0 0-131.855012 200.155908c0 5.01049 0 14.504051 6.329041 14.504052h66.191216a9.229851 9.229851 0 0 0 8.966141-9.229851 136.074372 136.074372 0 0 1 67.509766-117.350961 311.177828 311.177828 0 0 0 26.371002 55.379105 316.452029 316.452029 0 0 0 547.46201 0 311.968958 311.968958 0 0 0 26.371003-55.379105 136.338082 136.338082 0 0 1 67.246056 117.350961 9.229851 9.229851 0 0 0 8.966141 9.229851h66.191216c5.01049 0 6.329041-9.493561 6.32904-14.504052a217.29706 217.29706 0 0 0-131.855012-200.155908v-120.515481h167.719575a8.966141 8.966141 0 0 0 8.966141-8.966141v-68.828316a8.966141 8.966141 0 0 0-8.966141-8.966141z m-263.710024 190.134927a231.273691 231.273691 0 0 1-115.50499 199.892199 153.742944 153.742944 0 0 1-57.225075 27.689552v-448.307041a9.229851 9.229851 0 0 0-9.229851-8.966141h-79.113007a9.229851 9.229851 0 0 0-9.229851 8.966141v448.307041a153.742944 153.742944 0 0 1-56.170235-27.689552 231.273691 231.273691 0 0 1-114.450151-199.364779v-297.992327h440.39574z m10.812111 0" p-id="2616"></path><path d="M269.929716 260.592708h68.828316a9.229851 9.229851 0 0 0 9.229851-8.966141 171.411516 171.411516 0 0 1 19.250832-83.332368 130.272752 130.272752 0 0 1 51.423455-51.423454 175.630876 175.630876 0 0 1 83.332367-21.887932h17.932282a171.938936 171.938936 0 0 1 83.332368 21.887932 130.272752 130.272752 0 0 1 51.423454 51.423454 175.103456 175.103456 0 0 1 19.250832 83.068658 9.229851 9.229851 0 0 0 9.229851 8.966141h74.102517a9.229851 9.229851 0 0 0 9.22985-8.966141 326.47301 326.47301 0 0 0-34.809723-138.447763 222.83497 222.83497 0 0 0-88.870278-83.596077A254.216463 254.216463 0 0 0 520.454239 0.047204h-17.932282a254.216463 254.216463 0 0 0-123.416291 29.271813 222.83497 222.83497 0 0 0-89.397698 83.859787 324.89075 324.89075 0 0 0-31.381493 138.184053 8.966141 8.966141 0 0 0 8.966141 8.966141z m5.537911-7.911301" p-id="2617"></path></svg>